<svg xmlns="http://www.w3.org/2000/svg" viewBox="0 0 320 320" role="img" aria-label="PA Academy Seal">
  <!-- Scalloped seal stamp -->
  <defs>
    <path id="scallop" d="M160 18
      C172 18 180 28 192 26 C204 24 210 36 222 38 C234 40 236 52 248 58
      C260 64 258 76 268 84 C278 92 272 104 280 114 C288 124 278 134 284 146
      C290 158 278 166 280 178 C282 190 270 196 268 208 C266 220 252 222 246 234
      C240 246 226 244 216 254 C206 264 192 258 180 266 C168 274 160 264 148 266
      C136 268 128 278 116 274 C104 270 98 282 86 278 C74 274 72 262 60 256
      C48 250 50 238 40 230 C30 222 36 210 28 200 C20 190 30 180 24 168
      C18 156 30 148 28 136 C26 124 38 118 40 106 C42 94 56 92 62 80
      C68 68 82 70 92 60 C102 50 116 56 128 48 C140 40 148 50 160 48 Z"/>
  </defs>
  <path d="M160 12
    C175 12 186 24 200 22 C214 20 222 34 236 36 C250 38 254 52 268 58
    C282 64 280 78 292 88 C304 98 296 112 304 124 C312 136 298 146 304 160
    C310 174 296 182 298 196 C300 210 284 214 278 228 C272 242 254 240 244 252
    C234 264 216 256 202 266 C188 276 176 262 160 266 C144 270 132 282 116 276
    C100 270 94 284 78 278 C62 272 60 256 46 248 C32 240 34 224 22 214
    C10 204 20 190 12 176 C4 162 20 152 16 136 C12 120 28 114 32 98
    C36 82 54 80 62 64 C70 48 88 52 102 40 C116 28 132 40 148 34 C156 32 160 20 160 12 Z"
    fill="none" stroke="#D4A0A8" stroke-width="3"/>
  <circle cx="160" cy="160" r="118" fill="none" stroke="#D4A0A8" stroke-width="1.2" opacity="0.55"/>

  <!-- PA mark -->
  <g fill="none" stroke="#D4A0A8" stroke-width="8" stroke-linecap="round" stroke-linejoin="round">
    <path d="M88 195 V95 h48 c28 0 44 14 44 36 0 22-16 36-44 36 H106"/>
    <path d="M188 195 L222 95 h20 L272 175"/>
    <path d="M272 175 L286 150"/>
    <path d="M272 175 L296 168"/>
    <path d="M210 148 H252" stroke-width="6"/>
  </g>
  <text x="278" y="100" fill="#D4A0A8" font-family="Arial, Helvetica, sans-serif" font-size="12" font-weight="700">®</text>
  <line x1="90" y1="210" x2="230" y2="210" stroke="#D4A0A8" stroke-width="1.5"/>
  <text x="160" y="232" text-anchor="middle" fill="#D4A0A8" font-family="Montserrat, Arial, Helvetica, sans-serif" font-size="11" font-weight="700" letter-spacing="1.5">PERSONAL ASSISTANT</text>
  <text x="160" y="248" text-anchor="middle" fill="#D4A0A8" font-family="Montserrat, Arial, Helvetica, sans-serif" font-size="10" font-weight="700" letter-spacing="2.5">ACADEMY</text>
</svg>
